<?xml version="1.0" encoding="UTF-8" standalone="no"?>
<!DOCTYPE svg PUBLIC "-//W3C//DTD SVG 1.1//EN" "http://www.w3.org/Graphics/SVG/1.1/DTD/svg11.dtd">
<svg width="100%" height="100%" viewBox="0 0 669 245" version="1.1" xmlns="http://www.w3.org/2000/svg" xmlns:xlink="http://www.w3.org/1999/xlink" xml:space="preserve" xmlns:serif="http://www.serif.com/" style="fill-rule:evenodd;clip-rule:evenodd;stroke-linejoin:round;stroke-miterlimit:2;">
    <g id="Artboard1" transform="matrix(0.653266,0,0,0.23847,0,0)">
        <rect x="0" y="0" width="1024" height="1024" style="fill:none;"/>
        <clipPath id="_clip1">
            <rect x="0" y="0" width="1024" height="1024"/>
        </clipPath>
        <g clip-path="url(#_clip1)">
            <g transform="matrix(1.53077,0,0,4.1934,-416.627,-429.831)">
                <rect x="269.322" y="99.411" width="674.895" height="252" style="fill:white;"/>
            </g>
            <g transform="matrix(1.53077,0,0,4.1934,-394.176,-387.897)">
                <path d="M504.573,200.815C504.573,216.207 501.085,227.95 494.108,236.046C487.131,244.141 477.385,248.189 464.869,248.189C459.49,248.189 454.377,247.23 449.53,245.313L449.53,223.823C453.631,226.859 458.345,228.376 463.671,228.376C475.814,228.376 481.885,218.923 481.885,200.016L481.885,128.516L504.573,128.516L504.573,200.815Z" style="fill-rule:nonzero;"/>
                <path d="M527.102,134.508C527.102,131.099 528.313,128.25 530.737,125.96C533.16,123.67 536.289,122.525 540.124,122.525C543.852,122.525 546.967,123.656 549.471,125.92C551.974,128.183 553.225,131.046 553.225,134.508C553.225,137.97 551.987,140.846 549.51,143.136C547.034,145.426 543.905,146.571 540.124,146.571C536.342,146.571 533.227,145.399 530.777,143.056C528.327,140.712 527.102,137.863 527.102,134.508ZM528.859,246.112L528.859,162.149L551.068,162.149L551.068,246.112L528.859,246.112Z" style="fill-rule:nonzero;"/>
                <path d="M635.91,242.836C629.891,246.405 621.663,248.189 611.224,248.189C598.655,248.189 588.469,244.314 580.667,236.565C572.864,228.816 568.963,218.683 568.963,206.167C568.963,191.894 573.144,180.657 581.506,172.455C589.867,164.253 601.025,160.152 614.979,160.152C624.086,160.152 631.063,161.483 635.91,164.146L635.91,183.719C630.264,179.565 624.033,177.488 617.216,177.488C609.44,177.488 603.209,179.924 598.522,184.797C593.835,189.671 591.492,196.261 591.492,204.57C591.492,212.772 593.702,219.189 598.122,223.823C602.543,228.456 608.614,230.773 616.337,230.773C623.101,230.773 629.625,228.643 635.91,224.382L635.91,242.836Z" style="fill-rule:nonzero;"/>
                <path d="M726.902,210.402L670.821,210.402C671.726,224.675 679.821,231.812 695.107,231.812C704.427,231.812 712.735,229.362 720.032,224.462L720.032,241.398C712.256,245.925 702.27,248.189 690.074,248.189C677.025,248.189 666.866,244.407 659.596,236.845C652.327,229.282 648.692,218.71 648.692,205.129C648.692,191.814 652.593,180.989 660.395,172.654C668.198,164.319 677.957,160.152 689.674,160.152C701.391,160.152 710.525,163.747 717.076,170.937C723.627,178.127 726.902,188.006 726.902,200.575L726.902,210.402ZM705.892,195.782C705.892,182.467 700.406,175.81 689.435,175.81C684.854,175.81 680.82,177.621 677.332,181.242C673.843,184.864 671.673,189.711 670.821,195.782L705.892,195.782Z" style="fill-rule:nonzero;"/>
                <path d="M738.646,204.65C738.646,190.909 742.693,180.057 750.789,172.095C758.884,164.133 769.855,160.152 783.703,160.152C797.071,160.152 807.629,164.053 815.378,171.856C823.128,179.658 827.002,190.11 827.002,203.212C827.002,216.846 822.994,227.751 814.979,235.926C806.964,244.101 796.112,248.189 782.425,248.189C769.003,248.189 758.352,244.261 750.469,236.405C742.587,228.549 738.646,217.964 738.646,204.65ZM761.174,204.33C761.174,221.959 768.497,230.773 783.144,230.773C797.257,230.773 804.314,221.746 804.314,203.691C804.314,186.222 797.23,177.488 783.064,177.488C776.14,177.488 770.761,179.871 766.926,184.638C763.092,189.404 761.174,195.968 761.174,204.33Z" style="fill-rule:nonzero;"/>
                <path d="M892.351,245.233C888.569,247.15 883.297,248.109 876.533,248.109C859.33,248.109 850.729,239.002 850.729,220.787L850.729,179.085L836.828,179.085L836.828,162.149L850.729,162.149L850.729,143.375L872.938,136.904L872.938,162.149L892.351,162.149L892.351,179.085L872.938,179.085L872.938,216.873C872.938,226.14 876.586,230.773 883.883,230.773C886.918,230.773 889.741,229.921 892.351,228.217L892.351,245.233Z" style="fill-rule:nonzero;"/>
            </g>
            <g transform="matrix(1.53077,0,0,4.1934,-377.731,-482.091)">
                <path d="M448.423,319.359L448.423,289.295L470.161,289.295L470.161,292.842L452.401,292.842L452.401,302.05L469.033,302.05L469.033,305.578L452.401,305.578L452.401,315.811L470.858,315.811L470.858,319.359L448.423,319.359Z" style="fill-rule:nonzero;"/>
                <path d="M473.422,319.359L481.379,308.039L474.017,297.58L478.631,297.58L481.974,302.686C482.603,303.657 483.108,304.47 483.491,305.127C484.093,304.224 484.647,303.425 485.152,302.727L488.823,297.58L493.232,297.58L485.706,307.834L493.807,319.359L489.274,319.359L484.804,312.592L483.614,310.766L477.893,319.359L473.422,319.359Z" style="fill-rule:nonzero;"/>
                <path d="M496.883,327.706L496.883,297.58L500.246,297.58L500.246,300.41C501.039,299.302 501.935,298.472 502.933,297.918C503.931,297.364 505.141,297.088 506.563,297.088C508.422,297.088 510.063,297.566 511.484,298.523C512.906,299.48 513.98,300.83 514.704,302.573C515.429,304.317 515.791,306.227 515.791,308.305C515.791,310.534 515.391,312.54 514.591,314.324C513.792,316.109 512.629,317.476 511.105,318.426C509.581,319.376 507.978,319.851 506.296,319.851C505.065,319.851 503.961,319.592 502.984,319.072C502.006,318.552 501.203,317.896 500.574,317.103L500.574,327.706L496.883,327.706ZM500.226,308.592C500.226,311.395 500.793,313.467 501.928,314.806C503.063,316.146 504.437,316.816 506.05,316.816C507.69,316.816 509.095,316.122 510.264,314.735C511.433,313.347 512.018,311.197 512.018,308.285C512.018,305.509 511.447,303.431 510.305,302.05C509.164,300.67 507.8,299.979 506.214,299.979C504.642,299.979 503.251,300.714 502.041,302.184C500.831,303.654 500.226,305.79 500.226,308.592Z" style="fill-rule:nonzero;"/>
                <path d="M535.15,312.345L538.965,312.817C538.363,315.046 537.249,316.775 535.622,318.006C533.995,319.236 531.917,319.851 529.388,319.851C526.202,319.851 523.676,318.87 521.81,316.908C519.944,314.946 519.011,312.195 519.011,308.654C519.011,304.99 519.954,302.146 521.841,300.123C523.728,298.099 526.175,297.088 529.183,297.088C532.095,297.088 534.474,298.079 536.319,300.061C538.165,302.044 539.088,304.833 539.088,308.428C539.088,308.647 539.081,308.975 539.067,309.413L522.825,309.413C522.962,311.805 523.639,313.637 524.856,314.909C526.072,316.18 527.59,316.816 529.408,316.816C530.762,316.816 531.917,316.461 532.874,315.75C533.831,315.039 534.59,313.904 535.15,312.345ZM523.03,306.378L535.191,306.378C535.027,304.546 534.563,303.172 533.797,302.256C532.621,300.834 531.097,300.123 529.224,300.123C527.528,300.123 526.103,300.69 524.948,301.825C523.793,302.96 523.153,304.477 523.03,306.378Z" style="fill-rule:nonzero;"/>
                <path d="M543.6,319.359L543.6,297.58L546.922,297.58L546.922,300.676C548.522,298.284 550.832,297.088 553.854,297.088C555.166,297.088 556.373,297.323 557.473,297.795C558.574,298.267 559.398,298.885 559.944,299.651C560.491,300.417 560.874,301.326 561.093,302.379C561.23,303.062 561.298,304.258 561.298,305.967L561.298,319.359L557.606,319.359L557.606,306.111C557.606,304.607 557.463,303.483 557.176,302.738C556.889,301.992 556.379,301.398 555.648,300.953C554.917,300.509 554.059,300.287 553.074,300.287C551.502,300.287 550.145,300.786 549.003,301.784C547.862,302.782 547.291,304.675 547.291,307.465L547.291,319.359L543.6,319.359Z" style="fill-rule:nonzero;"/>
                <path d="M565.481,312.858L569.132,312.284C569.337,313.747 569.908,314.868 570.844,315.647C571.781,316.426 573.09,316.816 574.772,316.816C576.467,316.816 577.725,316.471 578.545,315.78C579.365,315.09 579.775,314.28 579.775,313.35C579.775,312.516 579.413,311.86 578.689,311.382C578.183,311.053 576.925,310.636 574.915,310.131C572.208,309.447 570.332,308.856 569.286,308.357C568.24,307.858 567.447,307.167 566.907,306.285C566.367,305.404 566.097,304.429 566.097,303.363C566.097,302.392 566.319,301.493 566.763,300.666C567.208,299.839 567.813,299.152 568.578,298.605C569.152,298.181 569.935,297.822 570.926,297.529C571.918,297.235 572.981,297.088 574.115,297.088C575.824,297.088 577.325,297.334 578.617,297.826C579.909,298.318 580.862,298.985 581.478,299.825C582.093,300.666 582.517,301.791 582.749,303.199L579.14,303.691C578.976,302.57 578.501,301.695 577.714,301.066C576.928,300.437 575.817,300.123 574.382,300.123C572.687,300.123 571.477,300.403 570.752,300.964C570.027,301.524 569.665,302.18 569.665,302.932C569.665,303.411 569.815,303.842 570.116,304.224C570.417,304.621 570.889,304.949 571.531,305.209C571.9,305.345 572.987,305.66 574.792,306.152C577.403,306.849 579.225,307.42 580.257,307.864C581.29,308.309 582.1,308.955 582.688,309.802C583.275,310.65 583.569,311.703 583.569,312.961C583.569,314.191 583.21,315.35 582.493,316.437C581.775,317.524 580.739,318.364 579.386,318.959C578.032,319.554 576.501,319.851 574.792,319.851C571.962,319.851 569.805,319.263 568.322,318.088C566.838,316.912 565.892,315.169 565.481,312.858Z" style="fill-rule:nonzero;"/>
                <path d="M602.867,312.345L606.682,312.817C606.08,315.046 604.966,316.775 603.339,318.006C601.712,319.236 599.634,319.851 597.105,319.851C593.919,319.851 591.393,318.87 589.527,316.908C587.661,314.946 586.728,312.195 586.728,308.654C586.728,304.99 587.671,302.146 589.558,300.123C591.444,298.099 593.892,297.088 596.899,297.088C599.812,297.088 602.19,298.079 604.036,300.061C605.882,302.044 606.805,304.833 606.805,308.428C606.805,308.647 606.798,308.975 606.784,309.413L590.542,309.413C590.679,311.805 591.356,313.637 592.572,314.909C593.789,316.18 595.307,316.816 597.125,316.816C598.479,316.816 599.634,316.461 600.591,315.75C601.548,315.039 602.307,313.904 602.867,312.345ZM590.747,306.378L602.908,306.378C602.744,304.546 602.279,303.172 601.514,302.256C600.338,300.834 598.814,300.123 596.94,300.123C595.245,300.123 593.82,300.69 592.665,301.825C591.509,302.96 590.87,304.477 590.747,306.378Z" style="fill-rule:nonzero;"/>
                <path d="M609.84,312.858L613.49,312.284C613.695,313.747 614.266,314.868 615.203,315.647C616.139,316.426 617.448,316.816 619.13,316.816C620.825,316.816 622.083,316.471 622.903,315.78C623.724,315.09 624.134,314.28 624.134,313.35C624.134,312.516 623.772,311.86 623.047,311.382C622.541,311.053 621.283,310.636 619.273,310.131C616.566,309.447 614.69,308.856 613.644,308.357C612.598,307.858 611.805,307.167 611.265,306.285C610.725,305.404 610.455,304.429 610.455,303.363C610.455,302.392 610.677,301.493 611.122,300.666C611.566,299.839 612.171,299.152 612.937,298.605C613.511,298.181 614.294,297.822 615.285,297.529C616.276,297.235 617.339,297.088 618.474,297.088C620.183,297.088 621.683,297.334 622.975,297.826C624.267,298.318 625.221,298.985 625.836,299.825C626.451,300.666 626.875,301.791 627.107,303.199L623.498,303.691C623.334,302.57 622.859,301.695 622.073,301.066C621.287,300.437 620.176,300.123 618.74,300.123C617.045,300.123 615.835,300.403 615.11,300.964C614.386,301.524 614.023,302.18 614.023,302.932C614.023,303.411 614.174,303.842 614.475,304.224C614.775,304.621 615.247,304.949 615.89,305.209C616.259,305.345 617.346,305.66 619.15,306.152C621.762,306.849 623.584,307.42 624.616,307.864C625.648,308.309 626.458,308.955 627.046,309.802C627.634,310.65 627.928,311.703 627.928,312.961C627.928,314.191 627.569,315.35 626.851,316.437C626.133,317.524 625.098,318.364 623.744,318.959C622.391,319.554 620.859,319.851 619.15,319.851C616.32,319.851 614.164,319.263 612.68,318.088C611.197,316.912 610.25,315.169 609.84,312.858Z" style="fill-rule:nonzero;"/>
                <path d="M644.334,319.359L644.334,289.295L650.322,289.295L657.439,310.582C658.095,312.564 658.573,314.048 658.874,315.032C659.216,313.938 659.749,312.332 660.474,310.213L667.672,289.295L673.024,289.295L673.024,319.359L669.19,319.359L669.19,294.196L660.453,319.359L656.864,319.359L648.169,293.765L648.169,319.359L644.334,319.359Z" style="fill-rule:nonzero;"/>
                <path d="M693.184,316.673C691.816,317.835 690.501,318.655 689.236,319.133C687.971,319.612 686.614,319.851 685.165,319.851C682.773,319.851 680.934,319.267 679.648,318.098C678.363,316.929 677.721,315.435 677.721,313.617C677.721,312.55 677.963,311.576 678.449,310.695C678.934,309.813 679.57,309.105 680.356,308.572C681.142,308.039 682.027,307.635 683.012,307.362C683.736,307.171 684.83,306.986 686.293,306.808C689.273,306.453 691.468,306.029 692.876,305.537C692.89,305.031 692.897,304.71 692.897,304.573C692.897,303.069 692.548,302.009 691.851,301.394C690.907,300.56 689.506,300.143 687.647,300.143C685.91,300.143 684.628,300.447 683.801,301.056C682.974,301.664 682.362,302.741 681.966,304.286L678.356,303.794C678.685,302.249 679.225,301.001 679.977,300.051C680.729,299.101 681.815,298.369 683.237,297.857C684.659,297.344 686.307,297.088 688.18,297.088C690.039,297.088 691.55,297.306 692.712,297.744C693.874,298.181 694.729,298.732 695.275,299.395C695.822,300.058 696.205,300.895 696.424,301.907C696.547,302.536 696.608,303.671 696.608,305.311L696.608,310.233C696.608,313.665 696.687,315.835 696.844,316.744C697.002,317.654 697.313,318.525 697.777,319.359L693.922,319.359C693.539,318.593 693.293,317.698 693.184,316.673ZM692.876,308.428C691.536,308.975 689.526,309.44 686.847,309.823C685.329,310.042 684.256,310.288 683.627,310.561C682.998,310.835 682.513,311.235 682.171,311.761C681.829,312.287 681.658,312.872 681.658,313.514C681.658,314.499 682.031,315.319 682.776,315.975C683.521,316.632 684.611,316.96 686.047,316.96C687.469,316.96 688.733,316.649 689.841,316.027C690.948,315.404 691.762,314.553 692.281,313.473C692.678,312.639 692.876,311.409 692.876,309.782L692.876,308.428Z" style="fill-rule:nonzero;"/>
                <path d="M702.33,319.359L702.33,297.58L705.652,297.58L705.652,300.676C707.252,298.284 709.563,297.088 712.584,297.088C713.897,297.088 715.103,297.323 716.204,297.795C717.304,298.267 718.128,298.885 718.675,299.651C719.222,300.417 719.605,301.326 719.823,302.379C719.96,303.062 720.028,304.258 720.028,305.967L720.028,319.359L716.337,319.359L716.337,306.111C716.337,304.607 716.193,303.483 715.906,302.738C715.619,301.992 715.11,301.398 714.378,300.953C713.647,300.509 712.789,300.287 711.805,300.287C710.232,300.287 708.876,300.786 707.734,301.784C706.592,302.782 706.022,304.675 706.022,307.465L706.022,319.359L702.33,319.359Z" style="fill-rule:nonzero;"/>
                <path d="M739.9,316.673C738.533,317.835 737.217,318.655 735.953,319.133C734.688,319.612 733.331,319.851 731.882,319.851C729.489,319.851 727.65,319.267 726.365,318.098C725.08,316.929 724.438,315.435 724.438,313.617C724.438,312.55 724.68,311.576 725.166,310.695C725.651,309.813 726.287,309.105 727.073,308.572C727.859,308.039 728.744,307.635 729.729,307.362C730.453,307.171 731.547,306.986 733.01,306.808C735.99,306.453 738.185,306.029 739.593,305.537C739.606,305.031 739.613,304.71 739.613,304.573C739.613,303.069 739.265,302.009 738.567,301.394C737.624,300.56 736.223,300.143 734.363,300.143C732.627,300.143 731.345,300.447 730.518,301.056C729.691,301.664 729.079,302.741 728.683,304.286L725.073,303.794C725.401,302.249 725.941,301.001 726.693,300.051C727.445,299.101 728.532,298.369 729.954,297.857C731.376,297.344 733.023,297.088 734.897,297.088C736.756,297.088 738.267,297.306 739.429,297.744C740.591,298.181 741.445,298.732 741.992,299.395C742.539,300.058 742.922,300.895 743.141,301.907C743.264,302.536 743.325,303.671 743.325,305.311L743.325,310.233C743.325,313.665 743.404,315.835 743.561,316.744C743.718,317.654 744.029,318.525 744.494,319.359L740.639,319.359C740.256,318.593 740.01,317.698 739.9,316.673ZM739.593,308.428C738.253,308.975 736.243,309.44 733.564,309.823C732.046,310.042 730.973,310.288 730.344,310.561C729.715,310.835 729.23,311.235 728.888,311.761C728.546,312.287 728.375,312.872 728.375,313.514C728.375,314.499 728.748,315.319 729.493,315.975C730.238,316.632 731.328,316.96 732.764,316.96C734.186,316.96 735.45,316.649 736.558,316.027C737.665,315.404 738.479,314.553 738.998,313.473C739.395,312.639 739.593,311.409 739.593,309.782L739.593,308.428Z" style="fill-rule:nonzero;"/>
                <path d="M748.37,321.164L751.959,321.697C752.109,322.804 752.526,323.611 753.21,324.117C754.126,324.8 755.377,325.142 756.963,325.142C758.672,325.142 759.991,324.8 760.921,324.117C761.851,323.433 762.48,322.476 762.808,321.246C762.999,320.494 763.088,318.915 763.074,316.508C761.461,318.409 759.451,319.359 757.045,319.359C754.051,319.359 751.733,318.279 750.093,316.119C748.452,313.959 747.632,311.368 747.632,308.346C747.632,306.268 748.008,304.351 748.76,302.594C749.512,300.837 750.602,299.48 752.031,298.523C753.46,297.566 755.138,297.088 757.065,297.088C759.636,297.088 761.755,298.127 763.423,300.205L763.423,297.58L766.827,297.58L766.827,316.406C766.827,319.797 766.482,322.199 765.792,323.614C765.101,325.029 764.007,326.147 762.51,326.967C761.013,327.788 759.171,328.198 756.983,328.198C754.386,328.198 752.287,327.613 750.688,326.445C749.088,325.276 748.315,323.515 748.37,321.164ZM751.426,308.08C751.426,310.937 751.993,313.022 753.128,314.335C754.263,315.647 755.685,316.303 757.394,316.303C759.089,316.303 760.511,315.651 761.659,314.345C762.808,313.039 763.382,310.992 763.382,308.203C763.382,305.537 762.791,303.527 761.608,302.174C760.425,300.82 759,300.143 757.332,300.143C755.691,300.143 754.297,300.81 753.148,302.143C752,303.476 751.426,305.455 751.426,308.08Z" style="fill-rule:nonzero;"/>
                <path d="M787.315,312.345L791.129,312.817C790.527,315.046 789.413,316.775 787.786,318.006C786.159,319.236 784.081,319.851 781.552,319.851C778.366,319.851 775.84,318.87 773.974,316.908C772.108,314.946 771.175,312.195 771.175,308.654C771.175,304.99 772.118,302.146 774.005,300.123C775.892,298.099 778.339,297.088 781.347,297.088C784.259,297.088 786.638,298.079 788.483,300.061C790.329,302.044 791.252,304.833 791.252,308.428C791.252,308.647 791.245,308.975 791.231,309.413L774.989,309.413C775.126,311.805 775.803,313.637 777.02,314.909C778.236,316.18 779.754,316.816 781.572,316.816C782.926,316.816 784.081,316.461 785.038,315.75C785.995,315.039 786.754,313.904 787.315,312.345ZM775.194,306.378L787.356,306.378C787.191,304.546 786.727,303.172 785.961,302.256C784.785,300.834 783.261,300.123 781.388,300.123C779.692,300.123 778.267,300.69 777.112,301.825C775.957,302.96 775.317,304.477 775.194,306.378Z" style="fill-rule:nonzero;"/>
                <path d="M795.764,319.359L795.764,297.58L799.065,297.58L799.065,300.635C799.749,299.569 800.658,298.711 801.793,298.062C802.928,297.412 804.22,297.088 805.669,297.088C807.282,297.088 808.605,297.423 809.637,298.092C810.669,298.762 811.398,299.699 811.821,300.902C813.544,298.359 815.786,297.088 818.548,297.088C820.708,297.088 822.369,297.686 823.531,298.882C824.693,300.078 825.274,301.921 825.274,304.409L825.274,319.359L821.604,319.359L821.604,305.639C821.604,304.163 821.484,303.1 821.245,302.45C821.005,301.801 820.571,301.278 819.942,300.882C819.314,300.485 818.575,300.287 817.728,300.287C816.196,300.287 814.925,300.796 813.913,301.815C812.901,302.833 812.396,304.464 812.396,306.706L812.396,319.359L808.704,319.359L808.704,305.209C808.704,303.568 808.403,302.338 807.802,301.517C807.2,300.697 806.216,300.287 804.849,300.287C803.81,300.287 802.849,300.56 801.967,301.107C801.085,301.654 800.446,302.454 800.05,303.507C799.653,304.559 799.455,306.077 799.455,308.059L799.455,319.359L795.764,319.359Z" style="fill-rule:nonzero;"/>
                <path d="M845.659,312.345L849.474,312.817C848.872,315.046 847.758,316.775 846.131,318.006C844.504,319.236 842.426,319.851 839.897,319.851C836.711,319.851 834.185,318.87 832.319,316.908C830.453,314.946 829.52,312.195 829.52,308.654C829.52,304.99 830.463,302.146 832.35,300.123C834.236,298.099 836.684,297.088 839.691,297.088C842.604,297.088 844.982,298.079 846.828,300.061C848.674,302.044 849.597,304.833 849.597,308.428C849.597,308.647 849.59,308.975 849.576,309.413L833.334,309.413C833.471,311.805 834.148,313.637 835.364,314.909C836.581,316.18 838.099,316.816 839.917,316.816C841.271,316.816 842.426,316.461 843.383,315.75C844.34,315.039 845.099,313.904 845.659,312.345ZM833.539,306.378L845.7,306.378C845.536,304.546 845.071,303.172 844.306,302.256C843.13,300.834 841.606,300.123 839.732,300.123C838.037,300.123 836.612,300.69 835.457,301.825C834.301,302.96 833.662,304.477 833.539,306.378Z" style="fill-rule:nonzero;"/>
                <path d="M854.108,319.359L854.108,297.58L857.431,297.58L857.431,300.676C859.03,298.284 861.341,297.088 864.362,297.088C865.675,297.088 866.881,297.323 867.982,297.795C869.083,298.267 869.906,298.885 870.453,299.651C871,300.417 871.383,301.326 871.602,302.379C871.738,303.062 871.807,304.258 871.807,305.967L871.807,319.359L868.115,319.359L868.115,306.111C868.115,304.607 867.972,303.483 867.685,302.738C867.398,301.992 866.888,301.398 866.157,300.953C865.425,300.509 864.567,300.287 863.583,300.287C862.011,300.287 860.654,300.786 859.512,301.784C858.371,302.782 857.8,304.675 857.8,307.465L857.8,319.359L854.108,319.359Z" style="fill-rule:nonzero;"/>
                <path d="M885.526,316.057L886.06,319.318C885.021,319.537 884.091,319.646 883.271,319.646C881.931,319.646 880.892,319.434 880.153,319.01C879.415,318.587 878.896,318.029 878.595,317.339C878.294,316.649 878.144,315.196 878.144,312.981L878.144,300.451L875.437,300.451L875.437,297.58L878.144,297.58L878.144,292.186L881.815,289.971L881.815,297.58L885.526,297.58L885.526,300.451L881.815,300.451L881.815,313.186C881.815,314.239 881.879,314.916 882.009,315.217C882.139,315.517 882.351,315.757 882.645,315.934C882.939,316.112 883.359,316.201 883.906,316.201C884.316,316.201 884.856,316.153 885.526,316.057Z" style="fill-rule:nonzero;"/>
            </g>
            <g transform="matrix(1.53077,0,0,4.1934,-394.176,-387.897)">
                <path d="M353.827,263.57C351.655,268.578 345.377,255.052 349.016,258.982" style="fill:none;"/>
            </g>
            <g transform="matrix(1.53077,0,0,4.1934,-394.176,-362.736)">
                <ellipse cx="386.988" cy="132.411" rx="16.667" ry="16.167" style="fill:rgb(250,204,120);"/>
            </g>
            <g transform="matrix(1.85471,0,0,5.0808,-475.476,-295.83)">
                <path d="M296.655,194.744C296.655,216.928 314.638,234.911 336.822,234.911C359.005,234.911 376.988,216.928 376.988,194.744L336.822,194.744L296.655,194.744Z" style="fill:rgb(120,191,250);"/>
            </g>
            <g transform="matrix(1.53077,0,0,4.1934,-394.176,-387.897)">
                <rect x="370.655" y="175.577" width="32.667" height="83" style="fill:rgb(120,191,250);"/>
            </g>
            <g transform="matrix(1.33283,0,0,3.65115,-326.093,-270.512)">
                <circle cx="355.55" cy="266.744" r="19.333" style="fill:white;"/>
            </g>
            <g transform="matrix(1.53077,0,0,4.1934,-394.176,-387.897)">
                <path d="M353.758,277.119L354.508,306.619C354.508,306.619 309.383,306.994 305.633,257.994L337.508,257.869C338.136,257.869 334.804,273.869 353.758,277.119Z" style="fill:rgb(248,122,159);"/>
            </g>
        </g>
    </g>
</svg>
